<?xml version="1.0" encoding="UTF-8" standalone="no"?><svg xmlns="http://www.w3.org/2000/svg" xmlns:xlink="http://www.w3.org/1999/xlink" contentScriptType="application/ecmascript" contentStyleType="text/css" height="463px" preserveAspectRatio="none" style="width:797px;height:463px;background:#FFFFFF;" version="1.1" viewBox="0 0 797 463" width="797px" zoomAndPan="magnify"><defs><filter height="300%" id="f1aqf5meoz2bx5" width="300%" x="-1" y="-1"><feGaussianBlur result="blurOut" stdDeviation="2.0"/><feColorMatrix in="blurOut" result="blurOut2" type="matrix" values="0 0 0 0 0 0 0 0 0 0 0 0 0 0 0 0 0 0 .4 0"/><feOffset dx="4.0" dy="4.0" in="blurOut2" result="blurOut3"/><feBlend in="SourceGraphic" in2="blurOut3" mode="normal"/></filter></defs><g><g id="NeedPaper"><rect fill="#FEFECE" filter="url(#f1aqf5meoz2bx5)" height="52.7031" rx="12.5" ry="12.5" style="stroke:#A80036;stroke-width:1.5;" width="121" x="322.29" y="7"/><line style="stroke:#A80036;stroke-width:1.5;" x1="322.29" x2="443.29" y1="34.6094" y2="34.6094"/><text fill="#000000" font-family="sans-serif" font-size="14" lengthAdjust="spacing" textLength="71" x="347.29" y="26.5332">NeedPaper</text><text fill="#000000" font-family="sans-serif" font-size="12" lengthAdjust="spacing" textLength="101" x="327.29" y="52.0664">Do : Afficher erreur</text></g><g id="NeedToner"><rect fill="#FEFECE" filter="url(#f1aqf5meoz2bx5)" height="52.7031" rx="12.5" ry="12.5" style="stroke:#A80036;stroke-width:1.5;" width="121" x="270.29" y="266"/><line style="stroke:#A80036;stroke-width:1.5;" x1="270.29" x2="391.29" y1="293.6094" y2="293.6094"/><text fill="#000000" font-family="sans-serif" font-size="14" lengthAdjust="spacing" textLength="71" x="295.29" y="285.5332">NeedToner</text><text fill="#000000" font-family="sans-serif" font-size="12" lengthAdjust="spacing" textLength="101" x="275.29" y="311.0664">Do : Afficher erreur</text></g><g id="Impression"><rect fill="#FEFECE" filter="url(#f1aqf5meoz2bx5)" height="52.7031" rx="12.5" ry="12.5" style="stroke:#A80036;stroke-width:1.5;" width="91" x="99.29" y="397"/><line style="stroke:#A80036;stroke-width:1.5;" x1="99.29" x2="190.29" y1="424.6094" y2="424.6094"/><text fill="#000000" font-family="sans-serif" font-size="14" lengthAdjust="spacing" textLength="68" x="110.79" y="416.5332">Impression</text><text fill="#000000" font-family="sans-serif" font-size="12" lengthAdjust="spacing" textLength="71" x="104.29" y="442.0664">Do : imprime</text></g><ellipse cx="682.79" cy="163" fill="#000000" filter="url(#f1aqf5meoz2bx5)" rx="10" ry="10" style="stroke:none;stroke-width:1.0;"/><g id="Éteinte"><rect fill="#FEFECE" filter="url(#f1aqf5meoz2bx5)" height="50" rx="12.5" ry="12.5" style="stroke:#A80036;stroke-width:1.5;" width="64" x="535.79" y="267.5"/><line style="stroke:#A80036;stroke-width:1.5;" x1="535.79" x2="599.79" y1="295.1094" y2="295.1094"/><text fill="#000000" font-family="sans-serif" font-size="14" lengthAdjust="spacing" textLength="44" x="545.79" y="287.0332">Éteinte</text></g><g id="Allumée"><rect fill="#FEFECE" filter="url(#f1aqf5meoz2bx5)" height="50" rx="12.5" ry="12.5" style="stroke:#A80036;stroke-width:1.5;" width="70" x="222.79" y="138"/><line style="stroke:#A80036;stroke-width:1.5;" x1="222.79" x2="292.79" y1="165.6094" y2="165.6094"/><text fill="#000000" font-family="sans-serif" font-size="14" lengthAdjust="spacing" textLength="50" x="232.79" y="157.5332">Allumée</text></g><!--MD5=[18012a47f713e34eed7743b1f327b200]
link *start to Éteinte--><path d="M682.55,173.4 C681.72,188.17 678.23,217.1 663.79,236 C648.86,255.55 624.92,269.4 604.68,278.39 " fill="none" id="*start-to-Éteinte" style="stroke:#A80036;stroke-width:1.0;"/><polygon fill="#A80036" points="599.89,280.45,609.7383,280.5555,604.4805,278.4684,606.5677,273.2106,599.89,280.45" style="stroke:#A80036;stroke-width:1.0;"/><!--MD5=[09bf24848d9f08461d9c2d45882e9b83]
link Éteinte to Allumée--><path d="M561.01,267.34 C555.15,250.92 545.01,230.07 528.79,218 C492.73,191.17 364.28,174.68 298,167.78 " fill="none" id="Éteinte-to-Allumée" style="stroke:#A80036;stroke-width:1.0;"/><polygon fill="#A80036" points="292.95,167.26,301.5045,172.1406,297.9249,167.7603,302.3051,164.1807,292.95,167.26" style="stroke:#A80036;stroke-width:1.0;"/><text fill="#000000" font-family="sans-serif" font-size="13" lengthAdjust="spacing" textLength="93" x="546.79" y="232.4951">Mise en marche</text><!--MD5=[e05cf102d9297eac488f59706a4787d7]
link Allumée to Éteinte--><path d="M293.01,177.91 C318.53,188.27 353.7,203.14 383.79,218 C398.42,225.22 400.96,229.18 415.79,236 C454.06,253.61 499.66,269.64 530.86,279.89 " fill="none" id="Allumée-to-Éteinte" style="stroke:#A80036;stroke-width:1.0;"/><polygon fill="#A80036" points="535.74,281.48,528.4188,274.8921,530.9853,279.9333,525.9441,282.4997,535.74,281.48" style="stroke:#A80036;stroke-width:1.0;"/><text fill="#000000" font-family="sans-serif" font-size="13" lengthAdjust="spacing" textLength="103" x="416.79" y="232.4951">Mise hors tension</text><!--MD5=[978b2bff10615eeaef3476bf52dba6b2]
link Allumée to Impression--><path d="M222.72,164.84 C163.49,168.5 46.94,185.97 14.79,266 C6,287.86 6,297.14 14.79,319 C29.29,355.1 64.6,381.89 94.76,399.16 " fill="none" id="Allumée-to-Impression" style="stroke:#A80036;stroke-width:1.0;"/><polygon fill="#A80036" points="99.17,401.64,93.2758,393.7496,94.8087,399.1948,89.3635,400.7277,99.17,401.64" style="stroke:#A80036;stroke-width:1.0;"/><text fill="#000000" font-family="sans-serif" font-size="13" lengthAdjust="spacing" textLength="27" x="15.79" y="297.9951">Print</text><!--MD5=[74471bc8f91af1efd33773b71289f590]
link Impression to Allumée--><path d="M130.43,396.82 C114.94,365.87 93.87,312.26 104.79,266 C110.27,242.79 111.36,234.29 128.79,218 C153.58,194.82 189.76,180.85 217.5,172.95 " fill="none" id="Impression-to-Allumée" style="stroke:#A80036;stroke-width:1.0;"/><polygon fill="#A80036" points="222.58,171.54,212.8402,170.0783,217.7602,172.8701,214.9684,177.7901,222.58,171.54" style="stroke:#A80036;stroke-width:1.0;"/><text fill="#000000" font-family="sans-serif" font-size="13" lengthAdjust="spacing" textLength="146" x="105.79" y="297.9951">Doc. Imprimé [Encre OK]</text><!--MD5=[47baa64d7edc784bb0ce12d3dc6fa4b4]
link Impression to NeedPaper--><path d="M190.55,421.31 C278.7,417.2 475.79,399.01 616.79,319 C660.81,294.02 669.26,279.71 694.79,236 C717.01,197.95 735.82,173.55 709.79,138 C678.7,95.55 534.69,62.38 448.49,45.91 " fill="none" id="Impression-to-NeedPaper" style="stroke:#A80036;stroke-width:1.0;"/><polygon fill="#A80036" points="443.41,44.95,451.4951,50.5742,448.3204,45.8921,453.0025,42.7175,443.41,44.95" style="stroke:#A80036;stroke-width:1.0;"/><text fill="#000000" font-family="sans-serif" font-size="13" lengthAdjust="spacing" textLength="83" x="706.79" y="232.4951">Plus de papier</text><!--MD5=[3830c3b1541141ba753d47dc9a0c39f4]
link Impression to NeedToner--><path d="M136.25,396.97 C132.8,381.62 131.68,362.5 141.79,349 C142.28,348.34 210.88,328.3 265.28,312.49 " fill="none" id="Impression-to-NeedToner" style="stroke:#A80036;stroke-width:1.0;"/><polygon fill="#A80036" points="270.16,311.07,260.4037,309.7232,265.3562,312.4568,262.6226,317.4093,270.16,311.07" style="stroke:#A80036;stroke-width:1.0;"/><text fill="#000000" font-family="sans-serif" font-size="13" lengthAdjust="spacing" textLength="191" x="142.79" y="363.4951">Doc. Imprimé [Encre manquante]</text><!--MD5=[9e630df806c0df5d814ebdb04d59669a]
link NeedToner to Impression--><path d="M341.78,319.01 C346.54,334.35 348.99,353.47 338.79,367 C321.56,389.85 247.29,406.14 195.82,414.94 " fill="none" id="NeedToner-to-Impression" style="stroke:#A80036;stroke-width:1.0;"/><polygon fill="#A80036" points="190.6,415.82,200.1386,418.2725,195.5308,414.9911,198.8123,410.3833,190.6,415.82" style="stroke:#A80036;stroke-width:1.0;"/><text fill="#000000" font-family="sans-serif" font-size="13" lengthAdjust="spacing" textLength="27" x="346.79" y="363.4951">Print</text><!--MD5=[fe5ffef2a87522c51a3991c1513b5d01]
link Allumée to NeedPaper--><path d="M250.05,137.74 C246.82,122.8 245.66,103.91 254.79,90 C268.87,68.54 293.22,55.34 316.93,47.24 " fill="none" id="Allumée-to-NeedPaper" style="stroke:#A80036;stroke-width:1.0;"/><polygon fill="#A80036" points="321.98,45.58,312.1813,44.587,317.2295,47.1397,314.6768,52.1878,321.98,45.58" style="stroke:#A80036;stroke-width:1.0;"/><text fill="#000000" font-family="sans-serif" font-size="13" lengthAdjust="spacing" textLength="83" x="255.79" y="104.4951">Plus de papier</text><!--MD5=[3879b32d3f55fdfdc96375da7facb381]
link NeedPaper to Allumée--><path d="M373.19,60.05 C366.58,75.22 356.67,94.14 343.79,108 C330.73,122.04 313.24,133.9 297.45,142.9 " fill="none" id="NeedPaper-to-Allumée" style="stroke:#A80036;stroke-width:1.0;"/><polygon fill="#A80036" points="293.04,145.36,302.8478,144.4614,297.4047,142.9209,298.9452,137.4778,293.04,145.36" style="stroke:#A80036;stroke-width:1.0;"/><text fill="#000000" font-family="sans-serif" font-size="13" lengthAdjust="spacing" textLength="76" x="357.79" y="104.4951">Papier ajouté</text><!--MD5=[9a4fada1f7f84b617aedce8a0c759598]
link Allumée to NeedToner--><path d="M222.47,171.18 C179.9,181.46 117,202.89 141.79,236 C142.28,236.66 210.88,256.7 265.28,272.51 " fill="none" id="Allumée-to-NeedToner" style="stroke:#A80036;stroke-width:1.0;"/><polygon fill="#A80036" points="270.16,273.93,262.6226,267.5907,265.3562,272.5432,260.4037,275.2768,270.16,273.93" style="stroke:#A80036;stroke-width:1.0;"/><text fill="#000000" font-family="sans-serif" font-size="13" lengthAdjust="spacing" textLength="71" x="142.79" y="232.4951">Plus d'encre</text><!--MD5=[af1c4feddb3658af0897b072aa197c2e]
link NeedToner to Allumée--><path d="M281.59,265.99 C270.83,257.93 260.85,247.94 254.79,236 C248.23,223.1 248.21,207.16 250.16,193.56 " fill="none" id="NeedToner-to-Allumée" style="stroke:#A80036;stroke-width:1.0;"/><polygon fill="#A80036" points="251.03,188.28,245.6164,196.5076,250.215,193.2131,253.5094,197.8117,251.03,188.28" style="stroke:#A80036;stroke-width:1.0;"/><text fill="#000000" font-family="sans-serif" font-size="13" lengthAdjust="spacing" textLength="123" x="255.79" y="232.4951">Cartouche remplacée</text><!--MD5=[9d784b463df4f9b2d7ce5d3487953fa2]
@startuml

state "En attente de papier" as NeedPaper
state "En attente d'encre" as NeedToner
state Impression : Do : imprime
state NeedPaper : Do : Afficher erreur
state NeedToner : Do : Afficher erreur

[*] - -> Éteinte
Éteinte - -> Allumée : Mise en marche
Allumée - -> Impression : Print
Impression - -> Allumée : Doc. Imprimé [Encre OK]
Impression - -> NeedPaper : Plus de papier
Impression - -> NeedToner : Doc. Imprimé [Encre manquante]
Allumée - -> NeedPaper : Plus de papier
NeedPaper  - -> Allumée : Papier ajouté
Allumée - -> NeedToner : Plus d'encre
NeedToner   - -> Allumée : Cartouche remplacée
NeedToner   - -> Impression : Print
Allumée - -> Éteinte : Mise hors tension

@enduml

PlantUML version 1.2021.14(Fri Nov 12 17:46:50 CET 2021)
(GPL source distribution)
Java Runtime: OpenJDK Runtime Environment
JVM: OpenJDK 64-Bit Server VM
Default Encoding: Cp1252
Language: en
Country: US
--></g></svg>